<svg xmlns="http://www.w3.org/2000/svg" viewBox="0 0 20 20"><path d="M17.1 2.9c-1.9-1.8-4.3-2.9-7-2.9h-.2c-2.7 0-5.1 1.1-7 2.9C1 4.8 0 7.3 0 10s1 5.2 2.9 7.1c1.9 1.8 4.3 2.9 7 2.9h.2c2.6 0 5.1-1.1 6.9-2.9 2-1.9 3-4.4 3-7.1 0-2.7-1-5.2-2.9-7.1zm1.3 7.9c-.1 1.1-.4 2.1-.9 3.1h-2.6c.3-1 .4-2 .5-3.1h3zm0-1.6h-3c-.1-1.1-.2-2.1-.5-3.1h2.6c.5 1 .8 2.1.9 3.1zm-4.6 1.6c-.1 1.1-.2 2.1-.5 3.1h-2.5v-3.1h3zm2.7 4.6c-.2.2-.3.4-.5.6-.9.9-1.9 1.5-3 1.9.2-.2.3-.5.5-.7.3-.5.6-1.2.9-1.8h2.1zm-3.8 0c-.2.3-.3.7-.5 1-.5.9-1.1 1.4-1.4 1.7v-2.6l1.9-.1zM10.8 2c.3.3.9.8 1.4 1.7.2.3.4.6.5 1h-1.9V2zm2.2.1c1.1.4 2.1 1.1 3 1.9.2.2.4.4.5.6h-2.1l-.9-1.8c-.2-.2-.3-.5-.5-.7zm-2.2 7.1v-3h2.5c.3 1 .5 2 .5 3.1h-3zM3.5 4.6c.2-.2.3-.4.5-.6.9-.9 1.9-1.5 3-1.9-.2.2-.3.5-.5.7l-.9 1.8H3.5zm5.7 1.6v3.1h-3c.1-1.1.2-2.1.5-3.1h2.5zm0-4.2v2.6H7.3c.2-.3.3-.7.5-1 .6-.8 1.1-1.3 1.4-1.6zm0 16c-.3-.3-.9-.8-1.4-1.7-.2-.3-.4-.6-.5-1h1.9V18zM7 17.9c-1.1-.4-2.1-1.1-3-1.9-.2-.2-.4-.4-.5-.6h2.1l.9 1.8c.2.2.3.5.5.7zm2.2-7.1v3.1H6.7c-.3-1-.5-2-.5-3.1h3zm-4.1 3H2.5c-.5-1-.8-2-.9-3.1h3c.1 1.1.2 2.2.5 3.1zM1.6 9.2c.1-1 .4-2.1.9-3h2.6c-.3 1-.4 2-.5 3.1h-3z" fill="#cfcfcf"/></svg>