<svg width="167" height="58" fill="none" xmlns="http://www.w3.org/2000/svg"><path d="M146.3 43.7c0 6.8-4.1 8.4-7.6 8.4-3.7 0-5.1-1.8-5.1-4.1 0-5.1 6.6-5.1 11.2-5.1h1.4l.1.8zm8.3-6.4c0-4.8-1.2-12.1-14-12.1-4-.1-7.9.6-11.6 2.1v6.5c3-1.9 6.5-2.9 10.1-2.9 3.8 0 7.1 2 7.1 5.4v1.3h-.7c-1.5 0-3.1-.1-4.6-.1-13.4 0-15.7 6.1-15.7 10.4 0 5.2 4.1 8.7 9 9.5 4.6.8 9.9.8 14.1-1.7 6.6-3.8 6.3-11.8 6.3-18.4zm3.2-11.7l1 18.8h6.7l1-18.8h-8.7zm8.7 23.4h-8.7v8.2h8.7V49zm-53.3-11.4H99.9v-12h-8.3v31.6h8.3V43.7h13.3v13.5h8.2V25.6h-8.2v12zM81 51.7c-5.7 0-9.3-4.5-9.3-10.2 0-6.3 4.3-10.4 9.8-10.4 1.7-.1 3.5.2 5.1.9l.5-6c-2.3-.6-4.6-.9-7-.9-11.2 0-17.1 7.6-17.1 16s5.2 16.5 16.4 16.5c2.7 0 5.5-.4 8.1-1.2l-.3-6c-1.9.8-4 1.3-6.2 1.3zm-67.1 0c-3 .2-5.5-2.1-5.7-5.1v-3.2h5.2c2 0 5.5.2 5.5 4.1 0 3.9-3.3 4.1-5 4.2zM8.2 31h5.2c1.6 0 4.7.2 4.7 3.4 0 3.2-3 3.5-4.7 3.5H8.3L8.2 31zm12.1 9.6c3.5-.6 6-3.7 5.8-7.2 0-3.3-1.8-7.7-10.8-7.7H0v18.8c0 5 1.5 12.7 16 12.7 7.1 0 11.8-3.2 11.8-8.8.2-4-2.8-7.5-6.9-7.7h-.4m18.1-2.5c0-4.1 2.9-7.4 6.5-7.4 3.1 0 6.6 2.1 6.5 7.4h-13zM60.1 42c0-2.9-.2-16.9-14.6-16.9-8.5 0-15.6 6.1-15.6 16.3 0 11.1 7.6 16.2 17 16.2 3.7 0 7.4-.7 10.9-2v-6.2c-3.1 1.4-6.5 2.2-9.9 2.2-6.2 0-9.1-3.8-9.4-7.8H60V42h.1zM12.5 11.9c.1 3.5-2.6 6.4-6 6.5h-.4c-2.9.1-5.4-1.8-6.1-4.6h1.9c.6 1.8 2.3 2.9 4.2 2.9 2.3 0 4.3-1.8 4.5-4.1H5.3v-1.4h5.3c-.2-2.3-2.1-4-4.4-4-1.9-.1-3.6 1.1-4.2 2.9H.1c.7-2.8 3.2-4.7 6.1-4.6 3.5-.1 6.3 2.7 6.4 6.2-.1 0-.1.1-.1.2zm12.2-4.4h-4.3v10.7h-1.8V7.5h-4.4V5.7h10.5v1.8zm3.3 4.4c0 2.5 2 4.5 4.5 4.5s4.5-2 4.5-4.5-2-4.5-4.5-4.5-4.5 2-4.5 4.5zm11 0c0 3.5-2.9 6.4-6.4 6.4-3.5 0-6.4-2.9-6.4-6.4 0-3.5 2.9-6.4 6.4-6.4 3.5 0 6.4 2.9 6.4 6.4zm18.2 2.6c0-1.1-.7-2-2.7-2h-4.2v4.2h4.1c2.2 0 2.7-1 2.8-2.2zm-3.3-7.3h-3.6V11h3.5c2 0 2.6-.8 2.6-1.8.1-1-.4-2-2.5-2zm5.1 7.4c0 2.1-1.4 3.5-4.4 3.5h-6.1V5.7h5.6c2.9 0 4.3 1 4.3 3.2 0 1.2-.7 2.2-1.8 2.7 1.4.2 2.4 1.6 2.4 3zm2.2-2.7c-.1-3.5 2.6-6.4 6.1-6.5h.3c2.9-.1 5.4 1.8 6 4.6h-1.9c-.6-1.8-2.3-2.9-4.1-2.9-2.5 0-4.5 1.9-4.5 4.4v.3c-.1 2.5 1.8 4.6 4.2 4.7h.3c1.8.1 3.5-1.1 4.1-2.9h1.9c-.7 2.8-3.2 4.7-6 4.6-3.5.1-6.4-2.7-6.4-6.2v-.1zM83.3 1.5c0-.7.6-1.2 1.2-1.2.7-.1 1.3.4 1.3 1.1.1.7-.4 1.3-1.1 1.3h-.3c-.5 0-1-.5-1.1-1.2zm-5.1 0c0-.7.5-1.2 1.2-1.2s1.2.6 1.2 1.2c0 .7-.6 1.2-1.2 1.2s-1.2-.5-1.2-1.2zm-.4 9.2h8.6c-.3-2.1-2.1-3.6-4.2-3.5-2.1 0-3.9 1.5-4.4 3.5zm10.7 1.8H77.8c.1 2.4 2.1 4.2 4.4 4.1h.1c1.6 0 3-.8 3.8-2.2H88c-.9 2.5-3.3 4-5.9 3.9-3.4.1-6.3-2.5-6.4-5.9v-.5c-.2-3.4 2.5-6.3 5.9-6.5h.4c3.9 0 6.4 2.9 6.2 7" fill="#FF1900"/></svg>