<svg xmlns="http://www.w3.org/2000/svg" viewBox="0 0 20 20"><path fill="#fff" fill-opacity=".965" d="M16.7 0H3.3C1.6 0 0 1.6 0 3.3v13.3C0 18.4 1.6 20 3.3 20h13.4c1.8 0 3.3-1.6 3.3-3.3V3.3C20 1.6 18.4 0 16.7 0zm-1.3 11l.7.7c.8.7 1.3 1.3 1.5 1.8 0 0 0 .1.1.1 0 0 0 .1.1.2v.3c0 .1-.1.2-.2.2-.1.1-.3.1-.5.1h-2.6c-.2-.1-.3-.1-.4-.2l-.1-.1c-.2-.1-.4-.3-.6-.5l-.6-.6-.5-.5c-.2-.1-.3-.2-.5-.1h-.1l-.1.1-.2.2c-.1.1-.1.2-.1.4s-.1.4-.1.6v.2c0 .1 0 .1-.1.1-.1.1-.2.2-.4.2h-.9c-.4 0-.8 0-1.2-.1-.4-.1-.8-.3-1.1-.4-.3-.2-.6-.4-.8-.5-.3-.2-.4-.3-.6-.5l-.1-.1-.2-.2c-.1-.1-.3-.4-.6-.8l-.9-1.2c-.3-.4-.6-1-1-1.7-.3-.7-.7-1.4-1-2.2v-.3c.1-.2.2-.2.4-.2h2.5c.1 0 .1 0 .1.1.1.1.1.1.2.3.1.3.2.5.4.8.1.3.2.5.3.7l.1.2c.2.3.3.6.5.8.1.2.3.4.4.6s.2.2.3.3c.1.1.2.1.3.1H8s0-.1.1-.2c0-.1.1-.2.1-.4s.1-.4.1-.7v-1c0-.2 0-.4-.1-.6 0-.2-.1-.3-.1-.4v-.1c-.1-.1-.4-.3-.7-.3-.1 0-.1-.1 0-.2s.2-.2.3-.2c.3-.1.9-.2 1.9-.2.4 0 .8 0 1.1.1.1 0 .2.1.3.1.1 0 .1.1.2.2s.1.2.1.3v3.1c0 .1 0 .2.1.3 0 .1.1.1.2.2h.1s.1 0 .2-.1l.3-.3c.1-.1.3-.3.4-.5.2-.2.4-.5.6-.9l.9-1.8c0-.1 0-.1.1-.1l.1-.1h3.1c.1 0 .2.1.3.1v.1c.1.3-.3 1.1-1.2 2.4-.1 0-.3.3-.5.6-.4.5-.7.9-.7 1.1-.1.2-.1.4.1.6z"/></svg>